<svg width="194.91" height="22.05" viewBox="0 0 194.91 22.05" xmlns="http://www.w3.org/2000/svg"><g id="svgGroup" stroke-linecap="round" fill-rule="evenodd" font-size="9pt" stroke="#00acee" stroke-width="0.25mm" fill="#00acee" style="stroke:#00acee;stroke-width:0.25mm;fill:#00acee"><path d="M 24.42 0.33 L 27.72 0.33 L 22.08 21.75 L 18.63 21.75 L 14.85 8.52 A 37.094 37.094 0 0 1 14.636 7.755 A 50.994 50.994 0 0 1 14.415 6.9 A 86.236 86.236 0 0 1 14.201 6.026 A 71.046 71.046 0 0 1 14.01 5.205 A 73.485 73.485 0 0 1 13.928 4.837 Q 13.815 4.328 13.77 4.08 Q 13.74 4.41 13.59 5.19 A 32.294 32.294 0 0 1 13.421 6.008 A 42.681 42.681 0 0 1 13.215 6.9 A 78.499 78.499 0 0 1 12.994 7.793 A 60.914 60.914 0 0 1 12.78 8.61 L 9.06 21.75 L 5.61 21.75 L 0 0.33 L 3.33 0.33 L 6.48 12.99 A 42.67 42.67 0 0 1 6.941 15.001 A 48.483 48.483 0 0 1 7.08 15.705 A 60.824 60.824 0 0 1 7.293 16.892 Q 7.385 17.435 7.455 17.922 A 34.757 34.757 0 0 1 7.5 18.24 A 30.299 30.299 0 0 1 7.66 17.18 Q 7.751 16.638 7.869 16.037 A 52.866 52.866 0 0 1 7.95 15.63 Q 8.25 14.16 8.61 12.99 L 12.18 0.33 L 15.42 0.33 L 19.11 13.05 Q 19.47 14.25 19.77 15.735 Q 20.07 17.22 20.22 18.24 A 34.048 34.048 0 0 1 20.351 17.38 Q 20.477 16.62 20.655 15.72 A 52.938 52.938 0 0 1 21.098 13.686 A 45.694 45.694 0 0 1 21.27 12.99 L 24.42 0.33 Z M 140.76 0.33 L 144.06 0.33 L 138.42 21.75 L 134.97 21.75 L 131.19 8.52 A 37.094 37.094 0 0 1 130.976 7.755 A 50.994 50.994 0 0 1 130.755 6.9 A 86.236 86.236 0 0 1 130.541 6.026 A 71.046 71.046 0 0 1 130.35 5.205 A 73.485 73.485 0 0 1 130.268 4.837 Q 130.155 4.328 130.11 4.08 Q 130.08 4.41 129.93 5.19 A 32.294 32.294 0 0 1 129.761 6.008 A 42.681 42.681 0 0 1 129.555 6.9 A 78.499 78.499 0 0 1 129.334 7.793 A 60.914 60.914 0 0 1 129.12 8.61 L 125.4 21.75 L 121.95 21.75 L 116.34 0.33 L 119.67 0.33 L 122.82 12.99 A 42.67 42.67 0 0 1 123.281 15.001 A 48.483 48.483 0 0 1 123.42 15.705 A 60.824 60.824 0 0 1 123.633 16.892 Q 123.725 17.435 123.795 17.922 A 34.757 34.757 0 0 1 123.84 18.24 A 30.299 30.299 0 0 1 124 17.18 Q 124.091 16.638 124.209 16.037 A 52.866 52.866 0 0 1 124.29 15.63 Q 124.59 14.16 124.95 12.99 L 128.52 0.33 L 131.76 0.33 L 135.45 13.05 Q 135.81 14.25 136.11 15.735 Q 136.41 17.22 136.56 18.24 A 34.048 34.048 0 0 1 136.691 17.38 Q 136.817 16.62 136.995 15.72 A 52.938 52.938 0 0 1 137.438 13.686 A 45.694 45.694 0 0 1 137.61 12.99 L 140.76 0.33 Z M 194.91 18.96 L 194.91 21.75 L 182.85 21.75 L 182.85 0.33 L 194.91 0.33 L 194.91 3.09 L 186.09 3.09 L 186.09 9.21 L 194.37 9.21 L 194.37 11.94 L 186.09 11.94 L 186.09 18.96 L 194.91 18.96 Z M 176.64 0.33 L 180 0.33 L 172.44 21.75 L 169.08 21.75 L 161.55 0.33 L 164.88 0.33 L 169.47 13.77 A 30.321 30.321 0 0 1 169.899 15.052 A 38.165 38.165 0 0 1 170.22 16.14 A 28.351 28.351 0 0 1 170.518 17.297 Q 170.664 17.922 170.76 18.48 Q 170.928 17.498 171.254 16.305 A 32.299 32.299 0 0 1 171.3 16.14 A 41.263 41.263 0 0 1 171.762 14.598 A 33.942 33.942 0 0 1 172.05 13.74 L 176.64 0.33 Z M 54.09 0.33 L 60.09 0.33 Q 64.2 0.33 66.165 1.86 Q 68.13 3.39 68.13 6.51 A 7.349 7.349 0 0 1 68.032 7.742 Q 67.885 8.608 67.515 9.285 A 5.689 5.689 0 0 1 66.456 10.682 A 5.211 5.211 0 0 1 65.94 11.115 Q 64.98 11.82 63.93 12.24 L 69.93 21.75 L 66.21 21.75 L 61.05 13.08 L 57.33 13.08 L 57.33 21.75 L 54.09 21.75 L 54.09 0.33 Z M 162.72 21.75 L 159.33 21.75 L 157.05 15.57 L 148.77 15.57 L 146.49 21.75 L 143.13 21.75 L 151.26 0.24 L 154.62 0.24 L 162.72 21.75 Z M 95.16 21.75 L 89.16 21.75 L 89.16 0.33 L 95.79 0.33 A 15.069 15.069 0 0 1 98.485 0.56 A 11.022 11.022 0 0 1 101.46 1.53 Q 103.86 2.73 105.18 5.055 Q 106.38 7.169 106.489 10.213 A 17.254 17.254 0 0 1 106.5 10.83 A 15.741 15.741 0 0 1 106.208 13.962 Q 105.567 17.118 103.515 19.005 Q 100.53 21.75 95.16 21.75 Z M 49.212 13.852 A 16.871 16.871 0 0 0 49.44 11.01 A 16.942 16.942 0 0 0 49.224 8.237 A 12.297 12.297 0 0 0 48.33 5.205 Q 47.22 2.73 45.015 1.365 A 7.861 7.861 0 0 0 44.541 1.094 Q 43.37 0.478 41.921 0.208 A 13.212 13.212 0 0 0 39.51 0 Q 36.12 0 33.9 1.38 Q 31.68 2.76 30.585 5.22 A 12.255 12.255 0 0 0 29.715 8.162 A 16.82 16.82 0 0 0 29.49 10.98 A 17.433 17.433 0 0 0 29.704 13.779 A 12.68 12.68 0 0 0 30.57 16.8 Q 31.65 19.29 33.87 20.67 A 7.857 7.857 0 0 0 34.592 21.068 Q 35.719 21.614 37.102 21.856 A 13.776 13.776 0 0 0 39.48 22.05 A 15.463 15.463 0 0 0 39.754 22.048 Q 41.067 22.025 42.205 21.777 A 8.797 8.797 0 0 0 45 20.67 Q 47.22 19.29 48.33 16.815 A 12.257 12.257 0 0 0 49.212 13.852 Z M 85.47 21.75 L 73.08 21.75 L 73.08 0.33 L 76.32 0.33 L 76.32 18.96 L 85.47 18.96 L 85.47 21.75 Z M 32.91 11.01 A 15.009 15.009 0 0 0 33.089 13.407 Q 33.295 14.673 33.734 15.699 A 7.234 7.234 0 0 0 34.5 17.07 Q 36.09 19.29 39.48 19.29 A 8.287 8.287 0 0 0 41.391 19.084 Q 42.74 18.764 43.673 17.949 A 4.911 4.911 0 0 0 44.46 17.07 A 7.812 7.812 0 0 0 45.553 14.726 Q 46.02 13.11 46.02 11.01 Q 46.02 8.309 45.256 6.424 A 7.167 7.167 0 0 0 44.475 4.98 Q 42.93 2.79 39.51 2.79 A 8.408 8.408 0 0 0 37.573 2.999 Q 36.216 3.32 35.273 4.136 A 4.974 4.974 0 0 0 34.5 4.98 A 7.579 7.579 0 0 0 33.386 7.304 Q 33.088 8.308 32.977 9.505 A 16.252 16.252 0 0 0 32.91 11.01 Z M 95.58 3.06 L 92.4 3.06 L 92.4 19.02 L 95.01 19.02 A 11.661 11.661 0 0 0 98.215 18.619 Q 103.11 17.217 103.11 10.92 Q 103.11 8.369 102.33 6.669 A 5.588 5.588 0 0 0 101.145 4.965 A 6.391 6.391 0 0 0 98.417 3.425 Q 97.411 3.134 96.207 3.075 A 12.811 12.811 0 0 0 95.58 3.06 Z M 156.15 12.75 L 153.99 6.72 A 7.74 7.74 0 0 0 153.937 6.535 Q 153.844 6.227 153.677 5.736 A 91.982 91.982 0 0 0 153.675 5.73 A 31.486 31.486 0 0 1 153.346 4.706 A 35.102 35.102 0 0 1 153.24 4.35 Q 153.03 3.63 152.91 3.18 Q 152.67 4.11 152.37 5.16 Q 152.07 6.21 151.89 6.72 L 149.73 12.75 L 156.15 12.75 Z M 59.88 3.09 L 57.33 3.09 L 57.33 10.38 L 60.03 10.38 A 10.398 10.398 0 0 0 61.32 10.306 Q 62.684 10.135 63.485 9.569 A 2.858 2.858 0 0 0 63.66 9.435 Q 64.8 8.49 64.8 6.63 A 4.804 4.804 0 0 0 64.7 5.613 Q 64.567 5 64.258 4.55 A 2.46 2.46 0 0 0 63.6 3.9 A 3.851 3.851 0 0 0 62.619 3.439 Q 61.68 3.137 60.315 3.097 A 14.619 14.619 0 0 0 59.88 3.09 Z" vector-effect="non-scaling-stroke"/></g></svg>